# xmcd
#
# Track frame offsets: 
#        150
#        13814
#        26606
#        39404
#        53675
#        70493
#        88054
#        103480
#        112843
#        122712
#        133588
#        144441
#
# Disc length: 2161 seconds
#
# Revision: 0
# Processed by: cddbd v1.5.2PL0 Copyright (c) Steve Scherf et al.
# Submitted via: ExactAudioCopy v0.99pb5
#
DISCID=a6086f0c
DTITLE=Salett, Peter - Addicted to Distraction
DYEAR=2010
DGENRE=Country
TTITLE0=Desert Town
TTITLE1=Addicted to Distraction
TTITLE2=Feet on the Ground
TTITLE3=I'm Hers and she's Mine
TTITLE4=It Don't Bother me no More
TTITLE5=Infatuation
TTITLE6=Sifting Through the Pages
TTITLE7=Snow Covered Ice
TTITLE8=Take it to the One
TTITLE9=Tell me From the Heart
TTITLE10=The Rains of Cozumel
TTITLE11=Friday Morning
EXTD=
EXTT0=
EXTT1=
EXTT2=
EXTT3=
EXTT4=
EXTT5=
EXTT6=
EXTT7=
EXTT8=
EXTT9=
EXTT10=
EXTT11=
PLAYORDER=
